# xmcd CD database file
# Copyright (C) 1997 Ti Kan
# 
# Track frame offsets:
#     150
#     16267
#     34605
#     47272
#     60857
#     71017
#     80512
#     90962
# 
# Disc length: 1438 seconds
# 
# Revision: 1
# Processed by: cddbd v1.4b41PL1 Copyright (c) Steve Scherf et al.
# Submitted via: DiscPlay 4.0.4
# 
DISCID=4d059c08
DTITLE=Walt Disney - Disney Chanson Des Copains Vol. 1
DYEAR=1900
DGENRE=
TTITLE0=Hakuna Matata (Le Roi Lion)
TTITLE1=tre Un Homme Comme Vous (Le Livre De La Jungle)
TTITLE2=Chem Chem Chemin e (Mary Poppins)
TTITLE3=Un Petit Point De Lumi re (Peter et Elliott Le Dragon)
TTITLE4=Deux Bons Copains (Rox et Rouky)
TTITLE5=Tu As Trouv  Un Ami (Histoire de Jouets)
TTITLE6=Winnie L'Ourson (Les Merveilleuses Aventures de Winnie L'Ourson)
TTITLE7=C'est La F te (La Belle Et La B te)
EXTD=62374-7\nCopyright (c) Walt Disney Records
EXTT0=
EXTT1=
EXTT2=
EXTT3=
EXTT4=
EXTT5=
EXTT6=
EXTT7=
PLAYORDER=
